# xmcd CD database file
#
# Track frame offsets:
#	150
#	18902
#	38850
#	54825
#	75677
#	101255
#	118497
#	132302
#	149175
#	168527
#	181950
#	195902
#	210225
#	225977
#	245775
#
# Disc length: 3511 seconds
#
# Revision: 1
# Processed by: cddbd v1.4PL0 Copyright (c) Steve Scherf et al.
# Submitted via: CDex 1.50
#
DISCID=c90db50f
DTITLE=Acker Bilk - Acker Bilk in Holland
DYEAR=1983
DGENRE=Jazz
TTITLE0=Take the "A" Train
TTITLE1=The World Is Waiting for the Sunrise
TTITLE2=Just a Closer Walk With Thee
TTITLE3=Jeepers Creepers
TTITLE4=Lover Man
TTITLE5=Watermelon Man
TTITLE6=I Don't Want to Set the World on Fire
TTITLE7=St. Thomas
TTITLE8=Georgia
TTITLE9=Senora/Signora
TTITLE10=Blues Walk
TTITLE11=Stranger on the Shore
TTITLE12=Nobody's Sweetheart
TTITLE13=Once in a While
TTITLE14=The Old Music Master
EXTD=YEAR: 1983
EXTT0=
EXTT1=
EXTT2=
EXTT3=
EXTT4=
EXTT5=
EXTT6=
EXTT7=
EXTT8=
EXTT9=
EXTT10=
EXTT11=
EXTT12=
EXTT13=
EXTT14=
PLAYORDER=
